#!OML:ASF E:\Steps\Project 1\Capture day 1\Session 2\Subject.ASF
:FULLY-SPECIFIED
:DEGREES
265
root 9.27772 12.4693 30.1162 -123.084 0.436827 -181.086
lowerback -5.90559 -0.57526 -4.31178
upperback -2.54855 -0.683386 -0.825073
thorax 0.717695 -0.389485 1.52487
lowerneck -1.76263 -1.95353 1.91395
upperneck -27.4298 -5.21455 3.05703
head -8.17576 -4.43847 1.23754
rclavicle -6.36111e-015 -4.57205e-015
rhumerus -38.1016 -20.4618 -72.018
rradius 18.4088
rwrist 18.9271
rhand -10.3455 -50.4364
rfingers 7.12502
rthumb 15.6509 -79.8233
lclavicle -6.36111e-015 -4.57205e-015
lhumerus -33.4787 -4.49675 75.4774
lradius 22.9137
lwrist -6.18195
lhand -27.3012 -16.8127
lfingers 7.12502
lthumb -0.710993 13.1659
rfemur -94.375 7.39296 17.0895
rtibia 84.7436
rfoot -50.9894 -16.5235
rtoes -38.7888
lfemur -97.5944 -2.61289 -17.443
ltibia 89.4356
lfoot -36.8551 1.09121
ltoes -36.358
266
root 9.28276 12.3973 30.0383 -123.407 0.462973 -181.171
lowerback -5.53843 -0.582353 -4.32047
upperback -2.37885 -0.692694 -0.887453
thorax 0.688681 -0.390019 1.4677
lowerneck -1.98726 -2.21882 2.00433
upperneck -27.3247 -5.56739 3.24374
head -8.09601 -4.63702 1.29597
rclavicle 9.34288e-015 2.16675e-014
rhumerus -36.1917 -20.6328 -73.2642
rradius 18.2924
rwrist 19.4166
rhand -10.2224 -51.8102
rfingers 7.12502
rthumb 15.7694 -81.1878
lclavicle 9.34288e-015 2.16675e-014
lhumerus -31.8852 -3.90741 75.9402
lradius 22.3528
lwrist -6.77368
lhand -27.6857 -16.3314
lfingers 7.12502
lthumb -1.08234 13.6456
rfemur -94.4208 7.43743 17.2129
rtibia 86.2578
rfoot -51.434 -16.4769
rtoes -39.1522
lfemur -97.295 -2.81338 -17.562
ltibia 90.3998
lfoot -36.9244 0.781685
ltoes -35.4879
267
root 9.2835 12.3356 29.9605 -123.421 0.568379 -181.095
lowerback -5.54145 -0.557267 -4.20425
upperback -2.34446 -0.662755 -0.968844
thorax 0.72233 -0.376974 1.32055
lowerneck -2.11355 -1.76113 1.90003
upperneck -27.6056 -4.9432 3.478
head -8.16395 -4.3892 1.36433
rclavicle -5.96354e-016 2.70347e-014
rhumerus -34.1244 -20.5889 -74.7821
rradius 18.3335
rwrist 19.8946
rhand -11.6193 -48.464
rfingers 7.12502
rthumb 14.4239 -77.9428
lclavicle -5.96354e-016 2.70347e-014
lhumerus -30.1852 -2.94969 76.2316
lradius 21.6406
lwrist -7.90669
lhand -28.577 -17.1331
lfingers 7.12502
lthumb -1.94315 12.8378
rfemur -94.1523 7.79658 17.1801
rtibia 87.0553
rfoot -51.7373 -16.8262
rtoes -40.185
lfemur -97.2663 -2.86732 -17.5351
ltibia 91.3443
lfoot -36.9083 0.519422
ltoes -34.496
268
root 9.28176 12.2857 29.8706 -123.651 0.674518 -181.102
lowerback -5.39345 -0.736551 -4.10825
upperback -2.32959 -0.618729 -1.05782
thorax 0.660089 -0.226246 1.18068
lowerneck -2.25226 -1.39925 1.93719
upperneck -27.575 -4.45274 3.41763
head -8.13409 -4.15733 1.30397
rclavicle 1.0138e-014 1.27222e-014
rhumerus -32.1895 -20.3534 -76.2252
rradius 18.4944
rwrist 19.9792
rhand -12.1662 -47.9412
rfingers 7.12502
rthumb 13.8969 -77.4569
lclavicle 1.0138e-014 1.27222e-014
lhumerus -28.5051 -1.82847 76.5367
lradius 21.2047
lwrist -8.78307
lhand -28.0826 -15.9132
lfingers 7.12502
lthumb -1.46569 14.0615
rfemur -93.9336 7.83921 17.3743
rtibia 88.0796
rfoot -51.948 -17.0038
rtoes -40.8382
lfemur -96.8703 -3.0589 -17.529
ltibia 92.2215
lfoot -37.2071 0.226596
ltoes -35.5504
269
root 9.28242 12.2485 29.7732 -124.128 0.716559 -181.165
lowerback -4.97776 -0.760553 -4.14645
upperback -2.20961 -0.678844 -1.06523
thorax 0.555072 -0.260831 1.19414
lowerneck -3.06064 -1.11861 1.71543
upperneck -27.223 -4.09999 3.57403
head -7.86434 -3.99069 1.34192
rclavicle 7.95139e-016 -5.36719e-015
rhumerus -30.0721 -19.039 -78.0693
rradius 19.3522
rwrist 18.2315
rhand -11.961 -48.0823
rfingers 7.12502
rthumb 14.0946 -77.5843
lclavicle 7.95139e-016 -5.36719e-015
lhumerus -26.9206 -1.25984 77.227
lradius 21.2379
lwrist -8.74683
lhand -27.85 -16.9087
lfingers 7.12502
lthumb -1.24104 13.0675
rfemur -93.051 7.9296 17.413
rtibia 88.6221
rfoot -52.0589 -16.9618
rtoes -41.5235
lfemur -96.1086 -3.35358 -17.6243
ltibia 92.9893
lfoot -37.4825 -0.157027
ltoes -37.9639
270
root 9.28114 12.2289 29.6629 -125.033 0.756376 -181.449
lowerback -3.80107 -0.874814 -4.25378
upperback -2.36808 -0.897207 -1.13178
thorax -0.252961 -0.352868 1.18944
lowerneck -2.86266 -1.1072 1.70467
upperneck -26.9002 -3.994 3.58573
head -7.78767 -3.89291 1.33107
rclavicle -3.57812e-015 -2.72335e-014
rhumerus -28.6832 -17.4933 -79.6364
rradius 20.3437
rwrist 16.6346
rhand -12.1208 -47.7195
rfingers 7.12502
rthumb 13.9406 -77.2322
lclavicle -3.57812e-015 -2.72335e-014
lhumerus -26.2545 -1.76481 78.1265
lradius 21.936
lwrist -7.34835
lhand -26.2553 -13.4997
lfingers 7.12502
lthumb 0.299204 16.4798
rfemur -91.7524 7.72637 17.5086
rtibia 89.3875
rfoot -52.0906 -17.4404
rtoes -43.3963
lfemur -94.6246 -3.89092 -17.8781
ltibia 93.3495
lfoot -37.5575 -0.498969
ltoes -38.9631
271
root 9.28037 12.2212 29.5502 -125.835 0.727709 -181.691
lowerback -3.41692 -0.832968 -4.3455
upperback -2.11418 -1.10966 -1.14733
thorax -0.202223 -0.575252 1.22144
lowerneck -2.65247 -5.00908 1.81813
upperneck -26.9698 -2.84011 5.04576
head -7.84513 -0.522615 1.33742
rclavicle -3.18055e-015 -1.31198e-014
rhumerus -26.6044 -15.1787 -81.619
rradius 21.8726
rwrist 14.2068
rhand -12.2194 -49.1959
rfingers 7.12502
rthumb 13.8456 -78.7151
lclavicle -3.18055e-015 -1.31198e-014
lhumerus -24.9041 -2.70489 79.1124
lradius 22.8878
lwrist -5.47432
lhand -29.1042 -15.9624
lfingers 7.12502
lthumb -2.45238 14.0033
rfemur -90.0429 7.75348 17.3951
rtibia 89.1231
rfoot -51.5192 -17.6956
rtoes -44.6805
lfemur -93.1613 -4.38292 -17.8845
ltibia 93.407
lfoot -37.5219 -0.804516
ltoes -38.7499
272
root 9.28154 12.2186 29.4402 -126.264 0.685897 -181.713
lowerback -3.50549 -0.894054 -4.23097
upperback -1.9661 -1.17949 -1.18346
thorax 0.000834358 -0.614786 1.11484
lowerneck -2.52968 -5.08188 1.80652
upperneck -27.1485 -2.88835 5.16753
head -7.92452 -0.549891 1.38595
rclavicle 1.98785e-014 5.56597e-015
rhumerus -24.745 -13.1449 -83.286
rradius 23.5716
rwrist 11.4876
rhand -12.5281 -48.7003
rfingers 7.12502
rthumb 13.5481 -78.2395
lclavicle 1.98785e-014 5.56597e-015
lhumerus -23.492 -4.25304 80.03
lradius 24.0127
lwrist -3.49883
lhand -30.1373 -16.7361
lfingers 7.12502
lthumb -3.45004 13.2158
rfemur -89.3277 7.86273 17.4374
rtibia 89.7466
rfoot -51.4862 -17.3086
rtoes -44.5715
lfemur -92.1169 -4.66873 -17.6787
ltibia 93.5385
lfoot -37.4819 -1.2336
ltoes -38.771
273
root 9.28178 12.2282 29.3234 -126.702 0.790339 -181.753
lowerback -3.26911 -0.881745 -4.19328
upperback -2.04658 -1.18665 -1.30784
thorax -0.217155 -0.617338 0.971066
lowerneck -2.77712 -5.22942 1.98587
upperneck -26.8105 -3.14599 5.1701
head -7.76621 -0.704654 1.36516
rclavicle -8.34896e-015 -8.74653e-015
rhumerus -23.3262 -11.1283 -84.7398
rradius 25.7167
rwrist 8.11258
rhand -11.4794 -49.0225
rfingers 7.12502
rthumb 14.5586 -78.4916
lclavicle -8.34896e-015 -8.74653e-015
lhumerus -22.4914 -6.52171 80.8903
lradius 25.4363
lwrist -1.86494
lhand -30.6229 -15.929
lfingers 7.12502
lthumb -3.91896 14.0147
rfemur -88.3062 8.05055 17.3038
rtibia 89.9457
rfoot -51.3521 -16.8666
rtoes -44.6265
lfemur -90.8926 -4.9246 -17.6432
ltibia 93.5603
lfoot -37.4307 -1.69331
ltoes -38.7662
274
root 9.28102 12.2487 29.196 -127.172 0.819228 -181.741
lowerback -3.20227 -0.889849 -4.18163
upperback -2.05989 -1.20171 -1.29594
thorax -0.267426 -0.623731 0.977624
lowerneck -2.91444 -5.24386 2.12826
upperneck -26.7367 -3.21825 4.92535
head -7.72548 -0.732966 1.26082
rclavicle -9.93923e-015 -8.74653e-015
rhumerus -21.9477 -8.951 -85.8408
rradius 28.3392
rwrist 4.9318
rhand -11.9067 -48.5733
rfingers 7.12502
rthumb 14.1469 -78.0717
lclavicle -9.93923e-015 -8.74653e-015
lhumerus -21.5844 -8.77105 81.6193
lradius 27.4496
lwrist 0.287453
lhand -31.2162 -17.2795
lfingers 7.12502
lthumb -4.49194 12.6529
rfemur -87.2221 8.19669 17.3553
rtibia 90.2973
rfoot -51.2816 -16.4418
rtoes -44.9963
lfemur -89.533 -5.14106 -17.5616
ltibia 93.3352
lfoot -37.3068 -2.05235
ltoes -38.1869
